<?xml version="1.0" standalone="no"?>
<!DOCTYPE svg PUBLIC "-//W3C//DTD SVG 20010904//EN"
 "http://www.w3.org/TR/2001/REC-SVG-20010904/DTD/svg10.dtd">
<svg version="1.0" xmlns="http://www.w3.org/2000/svg"
 width="959.000000pt" height="959.000000pt" viewBox="0 0 959.000000 959.000000"
 preserveAspectRatio="xMidYMid meet">
<metadata>
Created by potrace 1.14, written by Peter Selinger 2001-2017
</metadata>
<g transform="translate(0.000000,959.000000) scale(0.100000,-0.100000)"
fill="#000000" stroke="none">
<path d="M0 4795 l0 -4795 1920 0 c1056 0 1920 2 1920 4 0 2 -25 30 -56 61
-115 118 -151 273 -104 443 20 73 25 83 87 179 54 84 127 135 253 178 94 32
109 31 227 -6 158 -49 174 -60 279 -182 16 -20 54 -102 54 -119 0 -6 -13 -8
-34 -4 l-34 7 10 -43 c12 -50 4 -230 -11 -271 -6 -16 -43 -67 -83 -113 -62
-73 -79 -87 -130 -105 -32 -12 -58 -23 -58 -25 0 -2 1204 -4 2675 -4 l2675 0
-2 4795 -2 4795 -4793 0 -4793 0 0 -4795z m4988 4695 c12 -25 19 -52 16 -60
-10 -23 -8 -70 5 -120 27 -105 34 -127 54 -170 11 -25 33 -60 49 -78 15 -18
28 -39 28 -46 0 -7 17 -51 39 -97 21 -46 42 -99 46 -118 4 -19 18 -54 31 -79
13 -25 24 -55 24 -66 0 -12 6 -30 14 -41 7 -11 15 -46 18 -77 3 -34 11 -65 21
-76 10 -11 17 -35 17 -59 0 -24 6 -46 15 -53 34 -28 57 -103 59 -195 2 -49 8
-106 14 -125 6 -19 16 -100 22 -180 8 -120 13 -147 27 -158 16 -11 18 -10 21
7 5 34 32 25 32 -10 0 -24 -4 -30 -16 -25 -39 15 -66 -62 -40 -112 13 -24 14
-37 5 -59 -6 -17 -8 -61 -4 -113 4 -62 2 -101 -10 -143 -8 -32 -15 -68 -15
-80 0 -30 -62 -206 -84 -239 -16 -25 -16 -28 -1 -52 12 -17 15 -35 10 -56 -8
-35 15 -51 46 -32 27 17 43 15 64 -8 10 -11 24 -20 31 -20 7 0 21 -11 31 -24
23 -29 74 -56 106 -56 14 0 32 -11 45 -30 16 -21 31 -30 52 -30 21 0 35 -9 51
-32 30 -44 37 -47 74 -41 36 6 41 0 65 -61 12 -31 22 -42 48 -48 22 -6 36 -18
44 -36 27 -70 51 -103 80 -115 9 -3 25 -21 34 -39 9 -18 33 -51 53 -74 20 -22
43 -50 51 -63 54 -80 105 -141 128 -151 39 -16 63 -54 64 -103 2 -40 47 -139
89 -195 19 -25 40 -109 45 -182 2 -25 6 -62 10 -82 4 -25 -1 -59 -15 -105 -16
-53 -19 -75 -11 -101 5 -19 7 -46 4 -62 -4 -16 2 -45 13 -71 10 -24 25 -63 33
-87 7 -23 27 -59 45 -80 17 -20 47 -59 66 -87 19 -27 39 -54 46 -60 7 -5 17
-21 23 -35 13 -33 30 -58 63 -98 15 -18 27 -44 27 -58 0 -14 11 -44 24 -67 13
-23 29 -71 36 -106 8 -36 21 -72 29 -81 18 -18 51 -107 51 -137 0 -10 4 -23 9
-28 5 -6 3 -32 -5 -63 -8 -30 -11 -58 -8 -63 3 -5 -4 -25 -17 -45 -18 -30 -21
-45 -17 -106 5 -66 4 -71 -22 -98 -16 -16 -31 -39 -35 -52 -6 -20 -34 -83 -68
-155 -5 -13 -18 -25 -28 -28 -33 -11 -139 -129 -149 -167 -6 -20 -15 -40 -20
-43 -5 -3 -17 -30 -25 -59 -10 -33 -27 -63 -45 -80 -22 -19 -30 -35 -30 -60 0
-24 -11 -47 -38 -80 -39 -47 -47 -81 -25 -104 7 -7 13 -22 13 -32 0 -10 5 -22
10 -25 15 -9 12 -41 -5 -55 -11 -9 -25 -5 -72 24 -32 20 -64 36 -72 36 -7 0
-26 8 -42 17 -20 12 -34 15 -43 8 -124 -91 -204 -128 -253 -119 -18 3 -52 -1
-80 -10 -26 -9 -59 -14 -72 -11 -37 7 -170 -13 -194 -30 -12 -8 -36 -15 -54
-15 -17 0 -35 -5 -38 -10 -3 -5 -19 -10 -35 -10 -15 0 -30 -5 -32 -10 -2 -6
-13 -12 -26 -13 -12 0 -25 -9 -28 -19 -7 -24 -25 -23 -31 1 -7 26 -45 31 -112
14 -31 -8 -76 -18 -101 -22 -25 -4 -58 -14 -75 -21 -109 -46 -177 -61 -190
-40 -3 6 -15 10 -26 10 -12 0 -19 7 -19 20 0 11 5 20 11 20 8 0 8 5 -1 15 -16
19 -84 20 -99 1 -9 -11 -9 -15 1 -19 9 -4 10 -8 2 -14 -6 -4 -13 -16 -17 -25
-9 -25 -54 -23 -67 2 -6 11 -8 25 -5 30 3 6 2 10 -4 10 -6 0 -8 6 -5 14 8 20
-26 36 -53 25 -13 -5 -23 -13 -23 -18 0 -18 -31 -41 -56 -41 -13 0 -24 -5 -24
-11 0 -11 -16 -10 -99 5 -13 3 -27 9 -30 14 -15 23 -101 44 -153 38 -113 -15
-116 -15 -123 11 -3 14 -11 23 -18 20 -7 -2 -25 0 -42 6 -16 5 -71 10 -122 10
-79 2 -94 5 -106 22 -8 10 -37 26 -63 35 -42 14 -53 23 -74 63 -21 38 -34 50
-75 66 -83 33 -135 30 -135 -7 0 -19 45 -72 60 -72 15 0 43 -48 43 -75 0 -14
3 -26 8 -26 19 -3 24 -5 34 -11 6 -3 25 -4 43 -2 24 3 32 0 32 -12 0 -15 59
-46 72 -37 5 2 34 -5 66 -16 31 -11 81 -22 110 -25 29 -3 71 -11 95 -17 23 -7
61 -11 85 -10 25 2 42 -2 42 -8 0 -6 -10 -11 -22 -11 -13 0 -30 -4 -38 -10 -9
-6 9 -7 52 -4 45 3 71 0 80 -9 32 -30 70 -47 107 -47 27 0 43 -5 49 -16 7 -12
17 -15 37 -10 22 6 25 9 15 21 -10 12 -8 19 11 35 25 20 89 28 89 10 0 -5 -5
-10 -11 -10 -5 0 -8 -4 -4 -9 3 -6 -3 -14 -12 -20 -29 -16 41 -41 81 -30 47
14 104 11 131 -7 20 -13 36 -14 94 -7 l71 9 6 -32 c3 -19 13 -35 23 -37 38
-10 100 -5 111 9 17 19 65 18 86 -4 10 -9 22 -17 28 -17 23 0 15 -31 -11 -42
-66 -29 -170 -108 -189 -144 -8 -17 -16 -58 -17 -92 -1 -49 3 -71 22 -102 13
-22 29 -44 37 -48 8 -5 30 -38 48 -75 19 -37 50 -82 70 -100 46 -42 48 -75 4
-114 -55 -49 -89 -48 -218 8 -30 12 -109 37 -175 54 -66 18 -145 40 -175 50
-94 32 -274 97 -300 108 -27 11 -142 44 -305 87 -55 14 -116 33 -135 42 -69
32 -135 67 -168 89 -18 13 -70 37 -115 54 -45 17 -100 39 -122 49 -22 10 -54
21 -72 24 -38 7 -177 69 -248 110 -27 17 -63 35 -80 41 -51 19 -97 49 -144 93
-36 33 -50 54 -63 102 -22 73 -23 120 -4 165 17 41 125 158 182 197 24 16 46
38 49 49 3 11 18 23 33 26 15 4 37 16 49 27 13 11 40 23 60 26 32 5 38 10 38
31 0 14 -8 40 -17 60 -10 19 -18 43 -18 53 0 10 -5 15 -10 12 -6 -3 -13 1 -16
9 -3 9 -12 16 -20 16 -21 0 -44 42 -49 89 -2 23 -12 57 -23 75 -10 18 -22 48
-26 68 -3 19 -15 43 -26 53 -11 10 -20 24 -20 32 0 7 -4 13 -10 13 -5 0 -9 3
-8 8 6 27 -19 84 -48 113 -28 27 -34 41 -34 73 0 33 -7 49 -37 81 -35 37 -37
44 -36 100 1 37 -4 66 -12 75 -13 14 -25 92 -25 156 0 18 -7 37 -15 44 -8 7
-15 29 -15 50 0 24 -7 43 -20 55 -15 13 -20 31 -20 67 0 52 -13 87 -37 101
-10 6 -12 18 -8 38 4 17 2 35 -3 42 -6 7 -10 32 -11 57 0 25 -9 77 -19 117
-15 55 -18 88 -13 137 4 35 4 72 1 81 -10 29 -2 323 10 363 20 65 22 151 5
184 -20 42 -19 48 15 88 30 35 39 73 20 85 -19 12 -10 45 15 55 28 11 65 77
65 116 0 53 21 100 49 111 16 5 30 20 33 31 7 27 -26 72 -52 72 -21 0 -73 62
-94 110 -7 18 -41 62 -75 99 -70 75 -141 181 -141 209 0 11 -16 40 -35 65 -19
25 -35 52 -35 58 0 21 -72 89 -95 90 -16 1 -17 2 -2 6 13 3 17 15 17 52 0 41
-6 54 -49 108 -28 34 -57 76 -67 95 -9 18 -26 44 -36 58 -16 23 -17 31 -7 76
10 44 8 61 -15 153 -14 58 -32 112 -40 120 -59 68 -146 391 -162 605 -5 69
-17 142 -41 253 -3 14 2 28 16 39 22 19 30 71 9 58 -8 -5 -9 -2 -4 12 18 47
16 75 -14 168 -24 74 -31 109 -27 140 5 32 0 55 -18 95 -17 36 -25 71 -25 107
0 29 -5 86 -12 125 -11 65 -11 72 5 84 38 28 86 28 138 0 27 -14 75 -32 106
-40 31 -8 66 -22 79 -30 13 -8 39 -15 59 -15 44 0 87 -21 107 -52 8 -13 36
-33 61 -46 50 -25 124 -101 158 -162 12 -21 33 -44 47 -51 14 -8 33 -27 43
-43 17 -28 104 -106 119 -106 4 0 17 -15 29 -32 53 -84 72 -108 86 -108 8 0
44 -29 80 -65 37 -36 70 -65 74 -65 5 0 20 -18 35 -41 15 -22 42 -49 59 -59
18 -11 41 -34 51 -52 11 -18 34 -50 53 -71 18 -20 33 -41 33 -45 0 -5 24 -33
53 -64 65 -69 97 -106 97 -114 0 -4 24 -34 53 -68 58 -67 87 -108 102 -146 13
-30 39 -76 80 -139 17 -25 36 -57 43 -71 12 -24 51 -83 72 -107 6 -7 15 -24
20 -39 6 -14 19 -28 30 -31 14 -4 20 -14 20 -35 0 -33 83 -168 104 -168 7 0
23 -11 35 -24 13 -13 34 -27 48 -30 18 -5 23 -11 18 -25 -4 -13 2 -25 18 -38
13 -10 32 -34 41 -52 16 -31 18 -32 31 -14 10 14 27 18 70 18 65 0 85 17 85
70 0 17 7 54 15 81 20 68 35 519 18 547 -3 5 -5 61 -5 123 1 84 6 122 18 146
16 31 16 43 -2 169 -4 33 -2 54 10 78 9 17 21 71 27 119 6 50 20 111 34 143
14 31 25 74 25 95 0 45 20 112 49 169 12 21 21 49 21 60 0 12 4 25 10 31 26
26 80 130 80 154 0 15 17 72 38 126 57 145 88 233 102 286 7 26 19 49 27 52
19 8 45 73 38 96 -3 10 0 24 8 32 7 7 17 27 21 43 26 102 84 124 124 45z
m3665 -1655 c4 -8 2 -17 -3 -20 -6 -4 -10 3 -10 14 0 25 6 27 13 6z m133 -290
c7 -29 1 -41 -15 -30 -14 8 -14 55 -1 55 5 0 12 -11 16 -25z m-1209 -277 c-3
-7 -5 -2 -5 12 0 14 2 19 5 13 2 -7 2 -19 0 -25z m68 -158 c3 -5 1 -10 -4 -10
-6 0 -11 5 -11 10 0 6 2 10 4 10 3 0 8 -4 11 -10z m1378 -94 c6 -16 -2 -28
-14 -20 -12 7 -11 34 0 34 5 0 11 -6 14 -14z m53 -85 c3 -14 12 -48 20 -75 9
-34 11 -53 4 -60 -7 -7 -10 -2 -10 13 0 13 -11 36 -25 53 -29 35 -37 112 -10
102 8 -4 18 -18 21 -33z m-1000 -712 c10 -17 -13 -36 -27 -22 -12 12 -4 33 11
33 5 0 12 -5 16 -11z m98 -211 c8 -13 18 -36 22 -53 4 -16 11 -35 16 -42 5 -7
8 -20 5 -30 -4 -17 -5 -16 -12 2 -5 11 -21 38 -37 59 -27 38 -38 86 -18 86 5
0 16 -10 24 -22z m-494 -1824 c0 -8 -4 -12 -10 -9 -5 3 -10 10 -10 16 0 5 5 9
10 9 6 0 10 -7 10 -16z m-4716 -840 c4 -10 1 -14 -6 -12 -15 5 -23 28 -10 28
5 0 13 -7 16 -16z m3756 -634 c3 -4 32 -19 65 -34 33 -15 67 -32 75 -37 8 -5
33 -18 56 -28 60 -28 61 -43 6 -110 -47 -59 -78 -81 -110 -81 -16 0 -191 -176
-228 -229 -23 -32 -37 -26 -63 29 -13 27 -39 61 -58 75 -18 15 -44 36 -56 49
-12 12 -47 35 -77 52 -43 23 -56 35 -58 56 -3 26 -2 27 27 18 21 -6 33 -5 41
5 8 10 17 11 40 2 25 -9 33 -8 47 5 9 9 17 26 18 37 1 11 20 39 44 62 23 23
48 57 56 74 10 25 21 34 49 39 20 4 36 10 36 14 0 10 84 12 90 2z m-1772 -160
c6 0 12 -4 12 -9 0 -5 -9 -7 -20 -4 -12 3 -22 -1 -26 -11 -8 -21 -33 -21 -41
0 -7 20 15 36 42 29 11 -2 26 -5 33 -5z m537 -32 c-4 -18 -9 -36 -12 -40 -7
-12 -73 -41 -80 -35 -11 12 7 37 26 37 12 0 25 13 35 35 22 45 40 46 31 3z
m-125 -83 c0 -2 -18 -14 -40 -25 -37 -19 -42 -19 -56 -5 -8 8 -13 18 -10 23 5
8 106 15 106 7z m463 -387 c134 -161 224 -248 284 -274 44 -19 141 -23 148 -6
2 7 22 20 42 28 21 9 50 27 65 42 15 14 31 23 34 19 12 -12 -37 -94 -63 -106
-13 -6 -29 -24 -34 -40 -7 -20 -34 -45 -82 -77 -39 -26 -79 -56 -89 -66 -10
-10 -22 -18 -28 -18 -5 0 -48 -38 -95 -85 -47 -47 -104 -94 -127 -106 -39 -20
-47 -21 -93 -9 -27 7 -70 23 -95 36 -25 13 -49 24 -55 24 -15 0 -159 60 -169
71 -6 5 -22 9 -36 9 -29 0 -74 42 -108 103 -23 41 -20 43 40 27 55 -16 102 8
171 84 31 36 57 68 57 72 0 4 17 25 38 48 20 23 43 61 50 86 7 25 29 77 48
115 19 39 34 77 35 85 0 10 6 7 20 -10 11 -14 30 -37 42 -52z m-4806 -220 c-3
-8 -6 -5 -6 6 -1 11 2 17 5 13 3 -3 4 -12 1 -19z m62 -141 c1 -5 -3 -5 -9 -2
-5 3 -10 16 -9 28 0 21 1 21 9 2 5 -11 9 -24 9 -28z m3083 -563 c26 -3 54 -14
62 -23 15 -17 14 -20 -18 -45 -28 -21 -52 -28 -118 -35 -46 -4 -95 -14 -108
-21 -17 -9 -68 -14 -157 -14 -154 -1 -160 2 -170 82 -6 50 -5 51 23 57 16 4
34 8 39 10 14 5 391 -4 447 -11z m423 -14 c3 -5 2 -10 -4 -10 -5 0 -13 5 -16
10 -3 6 -2 10 4 10 5 0 13 -4 16 -10z m-3105 -233 c0 -5 -4 -5 -10 -2 -5 3
-10 14 -10 23 0 15 2 15 10 2 5 -8 10 -19 10 -23z m5303 -441 c8 -20 -18 -39
-43 -31 -20 6 -26 25 -13 38 12 12 51 7 56 -7z m-1503 -186 c16 0 40 -43 40
-71 0 -13 -34 -11 -48 3 -6 6 -22 13 -34 15 -12 2 -25 9 -30 16 -9 15 22 49
40 42 7 -3 22 -5 32 -5z"/>
<path d="M4007 5148 c-68 -24 -71 -28 -56 -77 10 -33 10 -55 0 -110 -7 -38
-11 -92 -10 -118 2 -34 -3 -57 -14 -73 -31 -44 -12 -129 37 -163 17 -11 44
-33 60 -48 61 -59 122 -71 226 -45 135 35 228 56 263 61 32 5 41 12 53 42 9
20 16 67 16 109 0 67 -3 80 -36 136 -44 76 -104 160 -122 171 -7 4 -34 24 -60
43 -98 75 -131 88 -222 89 -57 1 -100 -5 -135 -17z m184 -130 c38 -42 39 -85
3 -122 -39 -38 -68 -34 -100 14 -63 95 22 189 97 108z m-145 -329 c25 -24 79
-38 144 -39 52 0 90 -9 90 -20 0 -13 -78 -40 -113 -40 -64 0 -143 39 -158 76
-16 45 2 56 37 23z"/>
<path d="M6274 4005 c-3 -8 -13 -17 -23 -20 -9 -3 -44 -32 -76 -65 -40 -39
-68 -60 -84 -60 -13 0 -74 25 -136 55 -62 30 -120 55 -129 55 -24 0 -21 -65 3
-89 11 -11 37 -25 59 -30 21 -6 67 -28 102 -48 50 -30 66 -46 81 -80 10 -24
25 -43 33 -43 8 0 16 -4 18 -10 2 -5 21 30 43 78 21 48 48 93 58 100 30 23 64
85 69 130 6 40 -6 58 -18 27z"/>
<path d="M6113 3587 c-5 -7 -10 -24 -11 -38 -3 -43 -48 -132 -88 -171 -20 -21
-41 -38 -45 -38 -3 0 -9 -9 -12 -20 -5 -18 0 -20 38 -20 24 0 64 9 90 20 39
17 60 19 131 14 78 -5 84 -4 84 14 0 10 -32 51 -70 91 -54 57 -72 82 -76 112
-7 39 -26 56 -41 36z"/>
<path d="M4960 2640 c0 -5 5 -10 10 -10 6 0 10 5 10 10 0 6 -4 10 -10 10 -5 0
-10 -4 -10 -10z"/>
<path d="M3751 354 c0 -11 3 -14 6 -6 3 7 2 16 -1 19 -3 4 -6 -2 -5 -13z"/>
<path d="M4173 3 c9 -2 23 -2 30 0 6 3 -1 5 -18 5 -16 0 -22 -2 -12 -5z"/>
</g>
</svg>
